<?xml version="1.0" encoding="UTF-8"?>
<svg version="1.1" viewBox="0 0 1000 1000" width="1000" height="1000" xmlns="http://www.w3.org/2000/svg">
<path transform="translate(0)" d="m0 0h1e3v1e3h-1e3z" fill="#FEFDF9"/>
<path transform="translate(377,79)" d="m0 0h16l21 3 25 7 21 9 19 10 16 11 13 11 8 7 15 15 1 2 31 2 28 4 28 7 23 8 20 9 17 9 12 8 12 9 11 9 12 11 10 10 9 11 10 13 12 19 10 21 9 24 6 22 1 5v18l-4 9-7 6-4 2-8 21-7 14-3 2h-5l-8-13-9-15h-9l-26 4-4 1-2 5-14 28-3 3h-5l-6-9-12-23v-2h-49l-2 1 1 7 6 9 9 11 10 10 14 11 13 8 15 7 13 4h6l9-10 9-11 6-5 6 1 6 10 8 15 6-1 13-7 12-11 12-15 6-1 5 6 1 4v17l-4 16-8 16-7 11-11 12-11 11-13 10-15 10-16 9-27 11-29 9-24 5-22 3-13 1h-43l-32-3-27-5-8-1-17 12-21 11-27 9-22 4h-31l-19-4-14-7-4-6 1-6 22-18 10-11 14-21-23-15-14-10-13-11-13-12-13-14-13-17-11-17-5-9v-2h-2l-2 6-10 14-11 13-12 12-11 9-15 11-15 9-23 11-18 5-11 1-6-3 1-9 8-19 8-25 11-42 7-20 10-21 10-15 7-8-6-7-11-13-9-15-7-18-10-40-11-33-13-29v-8l4-4h13l20 6 21 10 22 14 14 11 13 12 8 8 7 8 11 13 8 11 4-5 11-16 9-11 12-14 18-18 14-11 13-10 19-12 17-9h2l1-24-2-16-5-17-11-24-6-13v-6l5-5z" fill="#060606"/>
<path transform="translate(140,667)" d="m0 0h82l14 2 12 4 11 6 10 9 6 8 7 16 3 14v16l-3 13-7 14-9 10-10 7-6 3 2 5 10 15 9 15 13 22v6l-4 3h-38l-7-6-12-21-14-24-4-7v-2l-23 1-1 54-4 5h-38l-3-4v-180z" fill="#060606"/>
<path transform="translate(512,667)" d="m0 0h35l6 3 6 7 15 24 13 20 17 26 12 19 10 15 1-110 4-4h35l4 3 1 3v177l-4 5h-39l-7-5-16-25-14-22-17-26-21-33-1 107-4 4h-37l-3-4v-180z" fill="#060606"/>
<path transform="translate(371,667)" d="m0 0h46l5 4 7 18 15 44 20 55 13 37 7 20v7l-3 3h-37l-6-5-10-29v-2h-68l-2 9-7 20-5 6-2 1h-36l-3-3 1-9 16-47 19-53 19-55 7-18z" fill="#060606"/>
<path transform="translate(759,667)" d="m0 0h46l5 5 6 16 15 43 19 53 18 52 4 11v5l-3 3h-37l-6-5-6-16-5-14-65-1-5 12-6 17-5 6-2 1h-36l-4-4 1-8 19-53 14-39 8-24 20-55z" fill="#060606"/>
<path transform="translate(612,238)" d="m0 0h14l14 3 16 8 12 11 8 10 5 11 3 10 1 7v12l-3 15-8 16-8 10-10 8-16 8-13 3h-18l-15-4-12-6-10-8-8-9-8-16-3-11-1-7v-9l3-16 6-14 7-9 5-5 8-7 14-7 10-3z" fill="#FEFDF9"/>
<path transform="translate(619,270)" d="m0 0 13 1 12 6 7 7 5 10 1 3v16l-4 10-6 8-8 6-9 3h-14l-10-4-8-6-6-9-3-8v-15l4-10 4-6 8-7 9-4z" fill="#060606"/>
<path transform="translate(458,308)" d="m0 0 1 2-7 25-3 17-2 27 1 29 3 21 5 21 8 22 2 6-5-2-13-12-9-12-10-19-5-15-3-19v-14l3-20 5-15 8-16 8-12 11-12z" fill="#FEFDF9"/>
<path transform="translate(182,709)" d="m0 0h38l9 3 7 6 4 9v11l-4 8-7 6-9 3-9 1h-28l-2-2v-44z" fill="#FEFDF9"/>
<path transform="translate(394,719)" d="m0 0 2 1 19 57v2h-41l2-9 16-48z" fill="#FEFDF9"/>
<path transform="translate(781,719)" d="m0 0 3 1 12 35 7 22v2h-41l3-12 12-36z" fill="#FEFDF9"/>
<path transform="translate(634,289)" d="m0 0h8l4 5v7l-4 5h-8l-5-5v-7z" fill="#FEFDF9"/>
</svg>
